<svg width="512pt" height="512pt" viewBox="0 0 512 512" version="1.1" xmlns="http://www.w3.org/2000/svg">
<g id="#000000ff">
<path fill="#000000" opacity="1.00" d=" M 235.54 0.00 L 255.43 0.00 C 271.73 1.93 288.02 5.71 302.65 13.36 C 330.15 27.48 352.14 51.98 363.25 80.83 C 365.52 86.44 366.90 92.34 368.58 98.13 C 371.78 109.83 370.58 122.03 370.81 134.00 C 370.65 138.61 371.34 143.40 369.79 147.85 C 368.01 152.73 368.01 158.05 366.18 162.92 C 360.47 183.39 348.79 201.87 333.92 216.92 C 307.93 242.92 281.93 268.91 255.97 294.94 C 254.86 296.04 253.49 296.87 251.94 297.12 C 246.31 298.21 240.33 298.94 234.78 297.08 C 232.33 295.66 230.56 293.38 228.55 291.45 C 203.57 266.43 178.57 241.43 153.58 216.42 C 136.67 199.05 123.96 177.04 119.71 153.02 C 119.07 149.66 117.27 146.55 117.36 143.06 C 117.28 133.35 117.34 123.65 117.33 113.94 C 117.33 104.90 120.26 96.25 122.64 87.64 C 135.51 47.38 169.66 14.31 210.83 4.03 C 218.98 2.21 227.23 0.81 235.54 0.00 M 233.45 46.59 C 211.25 49.57 190.46 62.41 178.46 81.42 C 162.37 105.89 161.92 139.64 177.57 164.42 C 187.03 180.02 202.27 191.87 219.60 197.48 C 247.66 206.66 280.67 198.57 300.90 176.92 C 316.25 160.85 324.02 138.00 321.79 115.91 C 320.51 101.93 315.26 88.38 306.91 77.11 C 294.55 60.15 274.86 48.89 254.09 46.30 C 247.23 45.30 240.31 46.03 233.45 46.59 Z" />
<path fill="#000000" opacity="1.00" d=" M 117.40 250.34 C 122.56 245.13 129.21 239.79 137.05 240.93 C 140.86 241.73 145.42 241.72 148.28 244.73 C 160.02 257.64 172.30 270.04 184.58 282.43 C 200.44 298.90 216.59 315.09 232.57 331.44 C 236.28 335.18 239.18 339.67 243.13 343.17 C 245.10 343.89 246.34 341.68 247.55 340.55 C 256.95 329.01 267.98 318.97 278.24 308.23 C 296.82 289.15 315.63 270.29 334.00 251.00 C 336.69 248.37 338.81 245.10 341.91 242.92 C 348.02 240.77 355.41 239.04 361.30 242.72 C 364.70 244.79 368.41 246.87 370.58 250.34 C 371.08 253.20 370.81 256.12 370.86 259.01 C 370.84 306.34 370.86 353.67 370.85 401.00 C 370.73 405.21 371.19 409.48 370.52 413.66 C 368.24 419.44 362.71 423.36 356.89 425.08 C 345.70 427.67 333.53 417.57 334.38 406.04 C 334.44 376.36 334.36 346.68 334.39 317.00 C 334.40 313.49 334.46 309.97 334.16 306.48 C 333.01 307.21 331.88 307.99 330.96 309.00 C 311.97 328.65 292.67 348.01 273.59 367.57 C 269.72 371.38 266.54 376.22 261.38 378.41 C 256.39 381.12 250.57 381.48 245.02 381.74 C 236.91 381.98 227.96 381.01 221.73 375.28 C 202.73 355.28 183.07 335.92 163.92 316.08 C 160.47 313.06 157.92 309.00 153.92 306.67 C 153.47 338.10 153.84 369.55 153.67 400.99 C 153.50 405.67 154.42 410.74 151.98 415.01 C 149.53 420.00 144.65 423.17 139.80 425.52 C 136.62 425.82 133.39 425.82 130.21 425.50 C 124.31 422.36 116.84 417.68 117.28 410.05 C 117.39 356.82 117.14 303.58 117.40 250.34 Z" />
</g>
<g id="#f33535ff">
<path fill="#f33535" opacity="1.00" d=" M 130.04 447.01 C 143.66 433.81 167.94 434.17 181.01 447.98 C 187.96 454.66 192.29 464.28 191.65 474.00 C 192.63 489.21 182.30 503.92 168.12 509.10 C 159.47 511.02 150.52 511.02 141.88 509.08 C 127.37 503.77 117.03 488.54 118.38 473.01 C 117.65 462.97 123.47 454.03 130.04 447.01 Z" />
</g>
<g id="#31d821ff">
<path fill="#31d821" opacity="1.00" d=" M 235.38 438.33 C 244.77 436.07 255.08 437.69 263.32 442.74 C 272.16 447.84 278.03 457.13 280.24 466.97 C 281.36 476.49 280.63 486.88 274.83 494.89 C 268.92 502.11 261.43 508.88 251.94 510.61 C 233.73 514.86 212.95 503.29 208.36 484.82 C 206.50 475.83 206.53 465.93 210.78 457.58 C 212.88 452.47 217.17 448.80 221.10 445.11 C 225.31 441.89 230.12 439.30 235.38 438.33 Z" />
</g>
<g id="#009fe9ff">
<path fill="#009fe9" opacity="1.00" d=" M 318.50 439.67 C 326.11 436.84 334.64 436.51 342.42 438.83 C 354.08 442.29 363.80 451.87 367.18 463.58 C 369.03 468.56 368.24 473.88 368.44 479.06 C 367.16 488.86 361.55 497.74 353.98 503.97 C 347.71 507.15 341.28 510.81 333.99 510.57 C 327.11 511.24 320.44 509.35 314.08 506.94 C 307.87 503.27 302.72 498.13 299.06 491.91 C 295.81 483.55 294.21 474.36 296.33 465.51 C 297.26 461.85 298.78 458.38 299.98 454.81 C 304.77 448.39 310.79 442.37 318.50 439.67 Z" />
</g>
<g id="#004a6d77">
<path fill="#004a6d" opacity="0.47" d=" M 294.20 468.21 C 295.72 463.59 296.83 458.66 299.98 454.81 C 298.78 458.38 297.26 461.85 296.33 465.51 C 294.21 474.36 295.81 483.55 299.06 491.91 C 296.40 488.42 295.42 484.07 294.13 479.97 C 292.98 476.15 292.97 472.00 294.20 468.21 Z" />
</g>
<g id="#0025363c">
<path fill="#002536" opacity="0.24" d=" M 369.20 467.84 C 371.34 470.40 371.03 473.93 370.85 477.05 C 370.90 478.42 370.18 479.58 369.02 480.27 C 368.76 476.14 368.47 471.94 369.20 467.84 Z" />
</g>
<g id="#0043636d">
<path fill="#004363" opacity="0.43" d=" M 333.99 510.57 C 341.28 510.81 347.71 507.15 353.98 503.97 C 349.70 508.65 343.29 510.01 337.54 512.00 L 325.47 512.00 C 321.55 510.62 317.42 509.52 314.08 506.94 C 320.44 509.35 327.11 511.24 333.99 510.57 Z" />
</g>
<g id="#6716166d">
<path fill="#671616" opacity="0.43" d=" M 141.88 509.08 C 150.52 511.02 159.47 511.02 168.12 509.10 C 165.93 510.05 163.78 511.08 161.59 512.00 L 148.42 512.00 C 146.22 511.07 144.07 510.03 141.88 509.08 Z" />
</g>
</svg>
