<?xml version="1.0" encoding="UTF-8" ?>
<!DOCTYPE svg PUBLIC "-//W3C//DTD SVG 1.1//EN" "http://www.w3.org/Graphics/SVG/1.1/DTD/svg11.dtd">
<svg width="378pt" height="344pt" viewBox="0 0 378 344" version="1.1" xmlns="http://www.w3.org/2000/svg">
<g id="#000000ff">
<path fill="#000000" opacity="1.00" d=" M 81.33 1.49 C 150.88 1.10 220.45 1.44 290.01 1.32 C 308.03 1.08 326.10 6.67 340.71 17.25 C 357.63 29.26 369.90 47.65 374.39 67.92 C 376.71 77.41 376.56 87.26 376.49 96.96 C 376.49 146.97 376.50 196.97 376.49 246.98 C 376.51 254.68 376.70 262.44 375.52 270.08 C 372.64 289.33 362.91 307.47 348.45 320.51 C 332.95 334.66 312.08 342.75 291.08 342.65 C 222.72 342.68 154.36 342.66 86.00 342.66 C 67.89 342.59 49.84 336.61 35.38 325.68 C 19.37 313.82 7.73 296.16 3.27 276.73 C -0.24 262.42 1.38 247.59 1.00 233.03 C 1.01 186.70 0.99 140.37 1.01 94.04 C 0.80 85.82 1.11 77.54 2.76 69.46 C 6.79 49.68 18.18 31.53 34.16 19.21 C 47.63 8.74 64.28 2.40 81.33 1.49 M 75.48 36.67 C 53.95 41.05 36.81 60.65 35.37 82.58 C 34.96 94.73 35.30 106.91 35.18 119.07 C 35.20 164.71 35.17 210.36 35.19 256.00 C 34.18 279.08 50.90 301.22 73.26 306.81 C 80.98 308.97 89.06 308.49 96.99 308.50 C 161.64 308.52 226.29 308.49 290.94 308.51 C 298.44 308.49 305.96 306.89 312.77 303.71 C 330.28 295.73 342.31 277.24 342.34 257.97 C 342.35 200.66 342.38 143.34 342.32 86.02 C 342.35 66.75 330.26 48.25 312.77 40.28 C 305.69 36.93 297.85 35.35 290.03 35.48 C 223.68 35.48 157.32 35.47 90.97 35.48 C 85.79 35.41 80.55 35.51 75.48 36.67 Z" />
<path fill="#000000" opacity="1.00" d=" M 80.44 87.67 C 82.85 86.74 85.46 86.63 88.01 86.64 C 156.01 86.69 224.02 86.58 292.02 86.69 C 301.39 86.65 309.43 95.67 308.47 104.96 C 308.04 113.78 299.85 121.18 291.04 120.80 C 223.01 120.81 154.98 120.80 86.96 120.81 C 80.31 121.01 73.65 117.13 70.93 111.00 C 66.50 102.33 71.31 90.84 80.44 87.67 Z" />
<path fill="#000000" opacity="1.00" d=" M 81.44 155.64 C 83.90 154.89 86.50 154.93 89.04 154.89 C 156.36 154.93 223.67 154.89 290.98 154.91 C 295.24 154.83 299.48 156.47 302.61 159.35 C 308.20 164.18 309.80 172.83 306.52 179.42 C 303.68 185.66 296.79 189.47 290.01 189.07 C 222.34 189.07 154.67 189.09 87.00 189.06 C 78.08 189.62 69.66 182.05 69.34 173.12 C 68.68 165.40 74.01 157.76 81.44 155.64 Z" />
<path fill="#000000" opacity="1.00" d=" M 83.23 223.29 C 96.47 222.58 109.78 223.24 123.05 222.99 C 179.38 223.16 235.72 223.07 292.05 223.21 C 299.71 223.18 306.74 229.02 308.33 236.47 C 310.25 244.14 305.93 252.71 298.68 255.82 C 294.74 257.73 290.27 257.36 286.03 257.33 C 219.68 257.28 153.33 257.22 86.98 257.17 C 79.40 257.50 72.06 252.30 70.03 244.97 C 66.88 235.66 73.58 224.83 83.23 223.29 Z" />
</g>
</svg>
