<svg version="1" xmlns="http://www.w3.org/2000/svg" width="933.333" height="933.333" viewBox="0 0 700.000000 700.000000"><path d="M311 1.2c-22.4 3.8-35.3 7.2-46.7 12.4-2.8 1.3-5.4 2.4-5.7 2.4-1.4 0-20.7 11.7-28.2 17.1-8.7 6.3-24.5 21.3-31.7 29.9-16.9 20.5-30.9 49.9-36.3 76.5-.2 1.1-.7 3.3-1.1 5-.3 1.6-.7 14.2-.7 28-.2 23.1 0 25.6 2 33.3 1.3 4.6 2.5 9.7 2.8 11.5 1.4 8.1 10.5 31.7 14.6 37.7.9 1.4 2 3.3 2.3 4.2 1 2.9 10.6 16.7 16.8 24.4 6.3 7.8 117.1 119.2 121.1 121.8 3.2 2.1 13.3 2.7 21.3 1.3l6-1 57.5-57.6c48.2-48.3 60.6-61.3 71.8-75.6 9.2-11.8 23.6-43.7 25.8-57.4.3-1.9 1.4-6.6 2.4-10.5 1.7-6.3 1.9-10.3 1.6-34.1-.3-27.9-.4-28.4-3.7-39.9-1.2-3.8-2.2-7.6-2.4-8.5-1.2-6.1-9.8-26.1-14.2-33.3-1.3-2.1-2.3-4-2.3-4.4 0-.3-1.6-2.8-3.5-5.4-1.9-2.6-3.5-5.2-3.5-5.8 0-.6-.4-1.2-.8-1.4-.4-.2-2.1-2.1-3.7-4.2-11.4-15.2-29-31.3-46-42.1-10.8-6.8-31.7-16.4-39.5-18-.8-.2-4-1-7-1.8-3-.9-8-2-11-2.6-3-.6-6.8-1.4-8.5-1.7C355.7.3 317 .1 311 1.2zm36 62.2c36.9 3.9 71.5 30.2 85.4 64.9 8.1 20.3 10.1 43.7 5.5 63.2-.5 2.2-1.2 4.9-1.4 6-1.1 4.8-6.9 18.3-10.7 24.8-18.7 32.4-53.7 52.3-92.1 52.5-29 .1-55.1-10.5-75.2-30.6-15.9-15.8-27.4-38.2-30.2-59-.9-7-1-26.2-.1-31.7 1.4-8.5 3.9-17.5 6.6-24.2 3-7.3 9.4-19.3 11.5-21.5.6-.7 2.5-3.1 4.2-5.3 4.5-6.1 15.1-16 22.4-20.9 17.3-11.5 33.9-17.2 53.6-18.3 5.5-.3 10.1-.7 10.3-.8.2-.2 1.5-.1 3 0 1.5.2 4.7.6 7.2.9z"/><path d="M174 332.2c-3 1.5-7.3 4.3-9.5 6.2l-4 3.4-.1 110.8c-.1 120.4-.4 114.6 5.4 120.8 10.7 11.2 25.9 11.4 37.1.4 7.3-7.1 7-3.2 7.2-82.6.1-42.8.6-71.2 1.1-71.2.5 0 6.6 5.7 13.5 12.7 6.9 7.1 23.5 24 37 37.8 13.5 13.7 28.8 29.4 34.2 34.8 13.3 13.7 18.9 16.3 35.6 16.5 10.2.1 20.4-1.7 26.3-4.7 2.3-1.2 6.3-4.3 8.9-6.9 2.6-2.7 19.7-20.1 37.8-38.7 18.2-18.5 37.3-38.1 42.5-43.3l9.5-9.7.2 13.5c.2 7.4.4 39.8.5 72 .3 65.5 0 62.2 7.7 69.7 10.1 9.8 23 10.4 34 1.5 8.9-7.2 8.1 4.8 8.1-121.4V342.1l-3.7-3.6c-2-1.9-6.5-4.9-10-6.6-5.6-2.8-6.9-3.1-12.5-2.6-11.4 1-12.5 1.7-25.8 15.5-15.2 15.8-70.4 72.3-86.5 88.7-13.7 13.8-23.2 24-29 30.8-2.2 2.6-4.8 4.7-5.7 4.7-.9 0-3.1-1.7-5-3.7-12.2-13.5-12.7-14-71.8-74.4-38.6-39.4-44.6-45.6-50.3-52.2-4.8-5.6-7.9-7.2-16.2-8.6-8-1.4-10-1.1-16.5 2.1zM201.5 599c-17.6 3.6-32.4 17.7-38.5 36.4-2 6.2-1.5 21.3 1 28.7 5.4 15.8 16.3 27 31.8 32.3 2.3.9 4.2 1.2 4.2.9 0-.4.6.1 1.3 1.2 1.1 1.4 1.6 1.5 2.2.5.6-.9.4-1.1-.5-.5-.9.6-1.1.4-.6-.4.6-.9 1.2-.9 2.5.3 1.1 1 2.1 1.2 3.1.6 1.8-1.2 3.3-1.3 2.6-.2-.2.4.6.8 1.9.8 1.3 0 2.1-.4 1.9-.8-.8-1.3 3.1-.9 4.5.5.9.7 1.1.7.8.1-.4-.7 0-1.5.9-1.8 1.2-.5 1.5-.2 1 1.1-.5 1.5-.4 1.5.9-.1.8-1.1 1.5-1.7 1.5-1.4 0 1 8.6-2.1 13.4-4.8 9.6-5.4 18.7-16.7 22.4-28 2.5-7.4 2.7-23.2.5-30.7-4.7-16-19.2-29.9-35.4-34-6.1-1.6-17.5-1.9-23.4-.7zM320 599.8c-17 4.4-31.4 19.2-35.3 35.9-1.7 6.9-1.5 20.7.3 27.3 4.4 16.3 19.8 30.7 37.5 35 6.8 1.6 17.7 1.4 24.3-.5 9.3-2.7 15.3-6.6 23.8-15.4 9.4-9.6 12.9-18.9 12.8-34.1-.1-15-4.6-25.6-15.3-36.1-12.3-12-30.7-16.6-48.1-12.1zM441 599.5c-9 2.4-15.7 6.3-22.9 13.4-6.3 6.2-8.1 8.7-9.1 12.6-.2.5-1 1.6-1.9 2.3-1.2 1-1.2 1.2-.1.6 1.2-.6 1.2-.4-.1 1.2-2.2 2.6-3.3 5.7-1.6 4.8.8-.5.7-.2-.2.9-.7.9-1 1.7-.5 1.7s.3.4-.4.8c-.7.5-1.4 1.8-1.7 3.1-.2 1.2 0 1.9.4 1.6 1-.6.9 9.8-.1 10.5-1.1.9.3 6 1.6 5.3.6-.4.5 0-.2.9-1 1.3-1 1.8-.1 2.4.8.5 1 .3.4-.7-.5-.8-.4-1.1.1-.6.4.4.9 1.8 1 3.1.3 6.4 9.5 19.2 19 26.4 4.2 3.2 9.2 5.7 10.8 5.3.5-.1 1.6.4 2.5 1.2 2.6 2.2 4.5 3.2 3.7 1.9-.5-.8.1-1.2 1.6-1.2 1.8 0 2 .2.8 1-1.3.9-1.3 1 0 1.1 5.5.5 9.8.3 9.4-.3-.3-.5.5-.8 1.8-.8 1.7 0 2 .3.9.9-1 .7-.7.9 1.2.8 1.4-.1 2.3-.5 2-1-.4-.6 3.4-1.1 7.5-1 .6.1 1.2-.3 1.2-.9 0-.5.5-.6 1-.3.6.3 1 0 1-.7 0-.9.3-.9 1 .2.8 1.3 1 1.2 1-.3 0-1 .5-1.5 1.1-1.2.5.4 2-.1 3.1-1.2 1.5-1.2 1.9-1.3 1.4-.3-.4.8 0 .6.8-.4.9-1.1 1.6-1.7 1.6-1.3 0 1.1 2.3-.9 9.1-7.6 6.2-6.2 12.5-17.2 13.5-23.9.4-2.1 1.1-3.8 1.6-3.8s.6-.6.1-1.3c-.9-1.5-1-3.3-.2-7.5.5-2 .3-3.2-.4-3.2-.8 0-.8-.3 0-1.1.7-.7.8-1.8.3-2.8-.5-.9-1.6-4.2-2.5-7.3-3.2-11.2-12.5-22.3-24-28.9-9.4-5.4-25.3-7.3-36.5-4.4zm-36.2 57c-.3.3-.9-.2-1.2-1.2-.6-1.4-.5-1.5.5-.6.7.7 1 1.5.7 1.8z"/><path d="M401.9 644.2c-.5 1.1-.5 6.9 0 7.2.4.3.6-1.3.6-3.5 0-3.4-.2-4.6-.6-3.7z"/></svg>